# xmcd
#
# Track frame offsets:
#	150
#	10240
#	23189
#	40125
#	52753
#	69569
#	79936
#	98766
#	114877
#	131392
#
# Disc length: 1982 seconds
#
# Revision: 1
# Processed by: cddbd v1.5.2PL0 Copyright (c) Steve Scherf et al.
# Submitted via: audiograbber 1.83.01
#
DISCID=7007bc0a
DTITLE=Lynn Anderson - Back
DYEAR=2019
DGENRE=Country
TTITLE0=You Can't Lose What You Never Had
TTITLE1=Love Comes Around Again
TTITLE2=What I've Learned from Loving You
TTITLE3=Your Kisses Lied
TTITLE4=At This Moment
TTITLE5=Fool for Love
TTITLE6=Heartbreak Kid
TTITLE7=This Time the Heartbreak Wins
TTITLE8=Mr. Sundown
TTITLE9=You're Welcome to Tonight
EXTD=
EXTT0=
EXTT1=
EXTT2=
EXTT3=
EXTT4=
EXTT5=
EXTT6=
EXTT7=
EXTT8=
EXTT9=
PLAYORDER=
